<?xml version="1.0" encoding="UTF-8"?>
<svg xmlns="http://www.w3.org/2000/svg" version="1.1" viewBox="0 0 500 500">
  <!-- Generator: Adobe Illustrator 29.8.2, SVG Export Plug-In . SVG Version: 2.1.1 Build 3)  -->
  <defs>
    <style>
      .st0 {
        fill: #33353e;
      }

      .st1 {
        fill: #ffd220;
      }

      .st2 {
        fill: #ef3b43;
      }
    </style>
  </defs>
  <g id="Base">
    <path class="st1" d="M14.66,245.16c0-114.87,92.99-207.85,207.85-207.85h80.98c101.63.84,183.33,83.91,182.49,185.53-.83,100.44-82.05,181.66-182.49,182.49H85.2l-56.94,55.17c-3.25,3.05-8.36,2.89-11.41-.36-1.41-1.5-2.19-3.49-2.19-5.55v-209.44h0Z"/>
  </g>
  <g id="Face">
    <path class="st0" d="M322.6,184.68c7.29,2.76,10.24,17.73,17.73,13.79,14.01-7.53,19.3-24.97,11.83-39.01-7.35-14.07-24.72-19.53-38.79-12.18-6.9,3.6-12.04,9.85-14.26,17.31-2.22,7.36-1.43,15.29,2.21,22.07,3.35,6.68,14.59-4.15,21.28-1.98ZM186.46,184.68c-7.29,2.76-10.25,17.73-17.73,13.79-14.07-7.61-19.31-25.18-11.71-39.25,3.6-6.65,9.65-11.64,16.88-13.88,7.33-2.26,15.25-1.5,22.02,2.11,14.05,7.6,19.33,25.11,11.83,39.22-3.56,6.68-14.59-4.15-21.28-1.98ZM255.81,323.97c56.94,0,75.27-50.83,75.27-76.84s-33.69,13.79-75.27,13.79-74.87-40-74.87-13.79,18.13,76.84,74.87,76.84Z"/>
    <path class="st2" d="M301.52,309.19c-11.22,8.68-26.2,14.78-45.71,14.78-18.13,0-32.51-5.32-43.35-13.4,5.93-12.41,17.15-21.86,30.54-26,2.37-.59,4.73,3.35,7.1,7.49,2.36,3.93,4.73,7.88,7.29,7.88s5.12-3.95,7.69-7.88c2.56-3.95,5.12-7.88,7.48-7.1,12.43,4.02,22.81,12.71,28.96,24.24Z"/>
  </g>
</svg>